# File created by Blade
# Date/Time:  Thu Sep 25 14:26:36 2014
# Frame Rate: 120.000 fps
#------------------------------------------------------
:FULLY-SPECIFIED
:DEGREES
2021
root 31.358884 30.655618 -9.792683 363.161762 -3.529816 355.543969
Spine 14.188344 6.042843 2.943099
Head -43.005505 -16.067910 12.580257
LeftShoulder -9.491468 25.258493 16.157934
LeftArm 31.689846 37.064684 -49.932259
LeftForeArm 0.932285 -0.000000 105.582994
LeftHand -22.608303 -0.000000 -22.836589
LeftHandThumb1 -26.253704 0.000000 33.147579
RightShoulder -14.438921 9.169133 -24.025997
RightArm 158.646792 -135.400445 269.151747
RightForeArm -4.441209 -0.000000 105.861544
RightHand -4.657041 -0.000000 28.802603
RightHandThumb1 -24.326973 -0.000000 -32.862282
LeftUpLeg -26.292630 17.431440 17.621183
LeftLeg 16.866120 -0.000000 -0.000000
LeftFoot -18.496745 22.475158 -21.246571
LeftToeBase -0.555149 -0.000000 0.000000
RightUpLeg -10.131260 -11.711407 7.504892
RightLeg 44.188375 -0.000000 -0.000000
RightFoot -39.447648 -29.487219 17.889877
RightToeBase -2.925729 -0.000000 0.000000
2022
root 31.244400 30.685013 -9.908899 363.127636 -4.663362 355.524090
Spine 14.117681 5.886764 3.235799
Head -42.370070 -15.135371 12.151097
LeftShoulder -9.551986 25.359080 16.196686
LeftArm 31.522927 37.083245 -50.435241
LeftForeArm 1.249404 -0.000000 105.535388
LeftHand -22.737277 -0.000000 -23.013571
LeftHandThumb1 -26.253704 0.000000 33.147579
RightShoulder -14.449061 9.146845 -24.008596
RightArm 158.839940 -135.322027 268.851899
RightForeArm -4.473968 0.000000 106.088339
RightHand -4.620008 -0.000000 29.013831
RightHandThumb1 -24.326973 -0.000000 -32.862282
LeftUpLeg -25.660468 16.451542 18.389994
LeftLeg 17.088574 -0.000000 -0.000000
LeftFoot -18.577471 22.251170 -21.173054
LeftToeBase -0.579405 -0.000000 0.000000
RightUpLeg -10.245907 -11.448428 7.515060
RightLeg 44.182089 -0.000000 -0.000000
RightFoot -39.013664 -28.714260 17.362465
RightToeBase -3.423859 -0.000000 0.000000
2023
root 31.137314 30.720588 -10.019432 363.108808 -5.784471 355.536438
Spine 14.010806 5.838330 3.453424
Head -41.712245 -14.287490 11.978562
LeftShoulder -9.461348 25.153886 16.368797
LeftArm 31.143525 37.334553 -51.011382
LeftForeArm 1.565357 -0.000000 105.488349
LeftHand -22.858449 -0.000000 -22.604313
LeftHandThumb1 -26.253704 0.000000 33.147579
RightShoulder -14.644197 9.052614 -23.891092
RightArm 159.197671 -134.988755 268.357308
RightForeArm -4.370259 -0.000000 106.287056
RightHand -4.701819 0.000000 29.041539
RightHandThumb1 -24.326973 -0.000000 -32.862282
LeftUpLeg -25.095172 15.352866 19.057868
LeftLeg 17.506048 -0.000000 -0.000000
LeftFoot -18.665897 22.190207 -20.806752
LeftToeBase -0.738434 -0.000000 0.000000
RightUpLeg -10.311875 -11.237001 7.482580
RightLeg 44.072251 -0.000000 -0.000000
RightFoot -38.552223 -27.940258 16.624867
RightToeBase -3.602510 -0.000000 0.000000
2024
root 31.031497 30.761325 -10.122741 363.094387 -6.806473 355.498682
Spine 13.916054 5.571799 3.784231
Head -41.004065 -13.370683 11.549719
LeftShoulder -9.513026 25.241168 16.358205
LeftArm 31.075010 37.413539 -51.379257
LeftForeArm 1.794591 -0.000000 105.360591
LeftHand -22.885622 -0.000000 -22.374327
LeftHandThumb1 -26.253704 0.000000 33.147579
RightShoulder -14.657447 9.084055 -23.904528
RightArm 159.277181 -134.784975 268.187268
RightForeArm -4.228667 -0.000000 106.461336
RightHand -4.785606 -0.000000 28.795594
RightHandThumb1 -24.326973 -0.000000 -32.862282
LeftUpLeg -24.627632 14.069058 19.735783
LeftLeg 18.135733 -0.000000 -0.000000
LeftFoot -18.790863 21.948051 -20.789647
LeftToeBase -0.890475 -0.000000 0.000000
RightUpLeg -10.291529 -11.207639 7.508719
RightLeg 43.765545 -0.000000 -0.000000
RightFoot -37.969187 -27.461394 15.644623
RightToeBase -3.736023 -0.000000 0.000000
2025
root 30.929998 30.805310 -10.211973 363.039524 -7.827643 355.537875
Spine 13.852335 5.351498 3.988321
Head -40.344735 -12.565748 11.279567
LeftShoulder -9.540230 25.261123 16.399846
LeftArm 31.007602 37.554094 -51.672883
LeftForeArm 1.933224 -0.000000 105.243744
LeftHand -23.074613 -0.000000 -21.748083
LeftHandThumb1 -26.253704 0.000000 33.147579
RightShoulder -14.693105 9.101816 -23.834403
RightArm 159.365638 -134.560555 267.972646
RightForeArm -4.405831 -0.000000 106.607900
RightHand -4.675255 -0.000000 28.601912
RightHandThumb1 -24.326973 -0.000000 -32.862282
LeftUpLeg -24.133406 12.675839 20.301455
LeftLeg 18.853824 -0.000000 -0.000000
LeftFoot -19.002690 20.939217 -22.605612
LeftToeBase -3.248110 -0.000000 0.000000
RightUpLeg -10.174357 -11.121771 7.452758
RightLeg 43.398625 -0.000000 -0.000000
RightFoot -37.428892 -27.045942 14.701011
RightToeBase -3.989344 -0.000000 0.000000
2026
root 30.849644 30.854348 -10.300922 363.071347 -8.788295 355.724806
Spine 13.650080 5.226129 4.041721
Head -39.653723 -11.867778 11.049525
LeftShoulder -9.402613 25.288659 16.512304
LeftArm 31.023200 37.708263 -51.871457
LeftForeArm 2.034485 -0.000000 105.074496
LeftHand -23.321667 -0.000000 -21.015871
LeftHandThumb1 -26.253704 0.000000 33.147579
RightShoulder -14.862708 8.925150 -23.726414
RightArm 159.652085 -134.339111 267.658848
RightForeArm -4.748079 -0.000000 106.680449
RightHand -4.631124 -0.000000 28.953877
RightHandThumb1 -24.326973 -0.000000 -32.862282
LeftUpLeg -23.881389 11.252773 20.547757
LeftLeg 19.802376 -0.000000 -0.000000
LeftFoot -19.198593 20.715979 -22.844263
LeftToeBase -3.735045 -0.000000 0.000000
RightUpLeg -10.150174 -11.120258 7.224082
RightLeg 43.030726 -0.000000 -0.000000
RightFoot -37.015153 -26.085165 13.957849
RightToeBase -4.283470 -0.000000 0.000000
2027
root 30.760828 30.912323 -10.397802 363.101774 -9.951848 355.851798
Spine 13.556633 5.266221 4.102662
Head -39.061434 -11.075286 10.870668
LeftShoulder -9.294893 25.204634 16.627284
LeftArm 30.996075 37.845520 -52.101341
LeftForeArm 1.860665 -0.000000 104.870929
LeftHand -23.718000 -0.000000 -20.119666
LeftHandThumb1 -26.253704 0.000000 33.147579
RightShoulder -15.008284 8.841380 -23.614808
RightArm 159.933211 -134.054630 267.445148
RightForeArm -4.955343 0.000000 106.721201
RightHand -4.685036 -0.000000 28.887932
RightHandThumb1 -24.326973 -0.000000 -32.862282
LeftUpLeg -23.598227 10.042680 20.809317
LeftLeg 20.901065 -0.000000 -0.000000
LeftFoot -19.432305 20.557715 -22.905929
LeftToeBase -3.763450 -0.000000 0.000000
RightUpLeg -10.116173 -10.745863 7.085499
RightLeg 42.641620 -0.000000 -0.000000
RightFoot -36.597409 -25.374373 13.247179
RightToeBase -4.178642 -0.000000 0.000000
2028
root 30.679782 30.973820 -10.479718 363.124927 -10.916682 356.023348
Spine 13.405358 5.158090 4.145956
Head -38.421769 -10.387187 10.675823
LeftShoulder -9.176113 25.111863 16.711600
LeftArm 31.027855 38.045864 -52.207081
LeftForeArm 1.544333 -0.000000 104.578885
LeftHand -23.811356 -0.000000 -19.179885
LeftHandThumb1 -26.253704 0.000000 33.147579
RightShoulder -15.136153 8.762692 -23.511497
RightArm 160.063863 -133.743886 267.307705
RightForeArm -5.219964 0.000000 106.746962
RightHand -4.654267 -0.000000 28.393668
RightHandThumb1 -24.326973 -0.000000 -32.862282
LeftUpLeg -23.413282 8.721219 20.911781
LeftLeg 22.073107 -0.000000 -0.000000
LeftFoot -19.625446 20.306985 -22.770513
LeftToeBase -3.791455 -0.000000 0.000000
RightUpLeg -10.056292 -10.626824 6.918541
RightLeg 42.176481 -0.000000 -0.000000
RightFoot -36.147100 -24.851107 12.506893
RightToeBase -4.175676 -0.000000 0.000000
2029
root 30.594082 31.042957 -10.551689 363.133947 -11.910372 356.110033
Spine 13.279444 5.060078 4.297523
Head -37.776331 -9.743412 10.434575
LeftShoulder -9.118781 25.175484 16.609488
LeftArm 31.243007 38.135040 -52.076051
LeftForeArm 1.163656 -0.000000 104.351239
LeftHand -24.030085 -0.000000 -18.279455
LeftHandThumb1 -26.253704 0.000000 33.147579
RightShoulder -15.211721 8.613904 -23.354189
RightArm 160.335083 -133.408602 267.010173
RightForeArm -5.326124 -0.000000 106.747830
RightHand -4.731324 -0.000000 27.630894
RightHandThumb1 -24.326973 -0.000000 -32.862282
LeftUpLeg -23.241134 7.585240 20.987799
LeftLeg 23.362598 -0.000000 -0.000000
LeftFoot -19.851701 19.924417 -22.854297
LeftToeBase -4.045831 -0.000000 0.000000
RightUpLeg -9.911957 -10.389375 6.876406
RightLeg 41.570131 -0.000000 -0.000000
RightFoot -35.535000 -24.754926 11.637699
RightToeBase -4.169802 -0.000000 0.000000
2030
root 30.515611 31.115012 -10.621435 363.172822 -12.997983 356.291239
Spine 13.090356 5.101343 4.302455
Head -37.087782 -9.110961 10.258629
LeftShoulder -8.987274 24.843582 16.675146
LeftArm 31.112911 38.467792 -52.211588
LeftForeArm 1.132488 -0.000000 104.029074
LeftHand -24.250493 0.000000 -17.828646
LeftHandThumb1 -26.253704 0.000000 33.147579
RightShoulder -15.298441 8.458364 -23.223078
RightArm 160.480858 -133.130523 266.965958
RightForeArm -5.623724 -0.000000 106.636969
RightHand -4.887334 -0.000000 27.200881
RightHandThumb1 -24.326973 -0.000000 -32.862282
LeftUpLeg -23.126562 6.732664 20.826884
LeftLeg 24.723802 -0.000000 -0.000000
LeftFoot -20.057331 19.588721 -22.679272
LeftToeBase -4.027202 -0.000000 0.000000
RightUpLeg -9.861505 -9.975868 6.718405
RightLeg 41.099999 -0.000000 -0.000000
RightFoot -34.922866 -24.380133 10.949471
RightToeBase -4.458778 -0.000000 0.000000
2031
root 30.440906 31.188183 -10.672770 363.109302 -13.996264 356.553562
Spine 12.971355 5.080726 4.210548
Head -36.398544 -8.531718 10.168249
LeftShoulder -8.894139 24.875156 16.687822
LeftArm 31.443357 38.597996 -52.028076
LeftForeArm 1.359666 -0.000000 103.697107
LeftHand -24.637058 0.000000 -17.256092
LeftHandThumb1 -26.253704 0.000000 33.147579
RightShoulder -15.337482 8.312865 -23.080843
RightArm 160.555114 -132.863328 266.992831
RightForeArm -5.611199 -0.000000 106.448961
RightHand -5.014576 -0.000000 26.815516
RightHandThumb1 -24.326973 -0.000000 -32.862282
LeftUpLeg -22.950857 5.891505 20.499761
LeftLeg 26.061189 -0.000000 -0.000000
LeftFoot -20.269402 19.310546 -22.558288
LeftToeBase -4.190108 -0.000000 0.000000
RightUpLeg -9.702219 -9.857801 6.438052
RightLeg 40.635605 -0.000000 -0.000000
RightFoot -34.355359 -23.897200 10.232803
RightToeBase -4.529086 -0.000000 0.000000
